<?xml version="1.0" encoding="UTF-8" standalone="no"?>
<svg
   xmlns:dc="http://purl.org/dc/elements/1.1/"
   xmlns:cc="http://creativecommons.org/ns#"
   xmlns:rdf="http://www.w3.org/1999/02/22-rdf-syntax-ns#"
   xmlns:svg="http://www.w3.org/2000/svg"
   xmlns="http://www.w3.org/2000/svg"
   xmlns:sodipodi="http://sodipodi.sourceforge.net/DTD/sodipodi-0.dtd"
   xmlns:inkscape="http://www.inkscape.org/namespaces/inkscape"
   sodipodi:docname="tikz.pdf"
   viewBox="0 0 104.90933 74.673332"
   height="74.673332"
   width="104.90933"
   xml:space="preserve"
   id="svg2"
   version="1.1"><metadata
     id="metadata8"><rdf:RDF><cc:Work
         rdf:about=""><dc:format>image/svg+xml</dc:format><dc:type
           rdf:resource="http://purl.org/dc/dcmitype/StillImage" /></cc:Work></rdf:RDF></metadata><defs
     id="defs6" /><sodipodi:namedview
     id="namedview4"
     inkscape:window-height="480"
     inkscape:window-width="640"
     inkscape:pageshadow="2"
     inkscape:pageopacity="0"
     guidetolerance="10"
     gridtolerance="10"
     objecttolerance="10"
     borderopacity="1"
     bordercolor="#666666"
     pagecolor="#ffffff" /><g
     transform="matrix(1.3333333,0,0,-1.3333333,0,74.673333)"
     inkscape:label="tikz"
     inkscape:groupmode="layer"
     id="g10"><g
       transform="translate(2.491,30.837)"
       id="g12"><g
         id="g14"><g
           id="g16"><g
             id="g18"><g
               id="g20"><path
                 id="path22"
                 style="fill:#000000;fill-opacity:1;fill-rule:nonzero;stroke:none"
                 d="M 2.49069,0 C 2.49069,1.37558 1.37558,2.49069 0,2.49069 -1.37558,2.49069 -2.49069,1.37558 -2.49069,0 c 0,-1.37558 1.11511,-2.49069 2.49069,-2.49069 1.37558,0 2.49069,1.11511 2.49069,2.49069 z" /></g><g
               id="g24"><g
                 id="g26" /></g></g><g
             id="g28"><g
               id="g30"><path
                 id="path32"
                 style="fill:#000000;fill-opacity:1;fill-rule:nonzero;stroke:none"
                 d="m 30.8375,22.67752 c 0,1.37558 -1.11512,2.49069 -2.4907,2.49069 -1.37558,0 -2.49069,-1.11511 -2.49069,-2.49069 0,-1.37559 1.11511,-2.49069 2.49069,-2.49069 1.37558,0 2.4907,1.1151 2.4907,2.49069 z" /></g><g
               transform="translate(28.346,22.677)"
               id="g34"><g
                 id="g36" /><g
                 transform="translate(-28.346,-22.677)"
                 id="g38" /></g></g><g
             id="g40"><g
               id="g42"><path
                 id="path44"
                 style="fill:#000000;fill-opacity:1;fill-rule:nonzero;stroke:none"
                 d="m 30.8375,-28.3468 c 0,1.37558 -1.11512,2.49069 -2.4907,2.49069 -1.37558,0 -2.49069,-1.11511 -2.49069,-2.49069 0,-1.37558 1.11511,-2.4907 2.49069,-2.4907 1.37558,0 2.4907,1.11512 2.4907,2.4907 z" /></g><g
               transform="translate(28.346,-28.346)"
               id="g46"><g
                 id="g48" /><g
                 transform="translate(-28.346,28.346)"
                 id="g50" /></g></g><g
             id="g52"><g
               id="g54"><path
                 id="path56"
                 style="fill:#000000;fill-opacity:1;fill-rule:nonzero;stroke:none"
                 d="m 39.34161,0 c 0,1.37558 -1.11511,2.49069 -2.49069,2.49069 -1.37558,0 -2.49069,-1.11511 -2.49069,-2.49069 0,-1.37558 1.11511,-2.49069 2.49069,-2.49069 1.37558,0 2.49069,1.11511 2.49069,2.49069 z" /></g><g
               transform="translate(36.85)"
               id="g58"><g
                 id="g60" /><g
                 transform="translate(-36.85)"
                 id="g62" /></g></g><g
             id="g64"><g
               id="g66"><path
                 id="path68"
                 style="fill:#000000;fill-opacity:1;fill-rule:nonzero;stroke:none"
                 d="m 67.68843,-28.3468 c 0,1.37558 -1.11511,2.49069 -2.49069,2.49069 -1.37558,0 -2.49069,-1.11511 -2.49069,-2.49069 0,-1.37558 1.11511,-2.4907 2.49069,-2.4907 1.37558,0 2.49069,1.11512 2.49069,2.4907 z" /></g><g
               transform="translate(65.197,-28.346)"
               id="g70"><g
                 id="g72" /><g
                 transform="translate(-65.197,28.346)"
                 id="g74" /></g></g><g
             id="g76"><g
               id="g78"><path
                 id="path80"
                 style="fill:#000000;fill-opacity:1;fill-rule:nonzero;stroke:none"
                 d="m 76.19255,0 c 0,1.37558 -1.11511,2.49069 -2.49069,2.49069 -1.37558,0 -2.49069,-1.11511 -2.49069,-2.49069 0,-1.37558 1.11511,-2.49069 2.49069,-2.49069 1.37558,0 2.49069,1.11511 2.49069,2.49069 z" /></g><g
               transform="translate(73.701)"
               id="g82"><g
                 id="g84" /><g
                 transform="translate(-73.701)"
                 id="g86" /></g></g><path
             id="path88"
             style="fill:none;stroke:#000000;stroke-width:0.3985;stroke-linecap:butt;stroke-linejoin:miter;stroke-miterlimit:10;stroke-dasharray:none;stroke-opacity:1"
             d="M 2.10036,1.6803 26.24643,20.99721" /><path
             id="path90"
             style="fill:none;stroke:#000000;stroke-width:0.3985;stroke-linecap:butt;stroke-linejoin:miter;stroke-miterlimit:10;stroke-dasharray:none;stroke-opacity:1"
             d="M 1.90207,-1.90207 26.44473,-26.44473" /><g
             id="g92"><path
               id="path94"
               style="fill:none;stroke:#000000;stroke-width:0.3985;stroke-linecap:butt;stroke-linejoin:miter;stroke-miterlimit:10;stroke-dasharray:2.98883, 2.98883;stroke-dashoffset:0;stroke-opacity:1"
               d="M 2.68994,0 H 34.16098" /></g><path
             id="path96"
             style="fill:none;stroke:#000000;stroke-width:0.3985;stroke-linecap:butt;stroke-linejoin:miter;stroke-miterlimit:10;stroke-dasharray:none;stroke-opacity:1"
             d="M 38.75299,-1.90207 63.29567,-26.44473" /><path
             id="path98"
             style="fill:none;stroke:#000000;stroke-width:0.3985;stroke-linecap:butt;stroke-linejoin:miter;stroke-miterlimit:10;stroke-dasharray:none;stroke-opacity:1"
             d="M 39.54086,0 H 71.01192" /></g></g></g></g></svg>
