<?xml version="1.0" encoding="UTF-8" standalone="no"?>
<svg
   xmlns:dc="http://purl.org/dc/elements/1.1/"
   xmlns:cc="http://creativecommons.org/ns#"
   xmlns:rdf="http://www.w3.org/1999/02/22-rdf-syntax-ns#"
   xmlns:svg="http://www.w3.org/2000/svg"
   xmlns="http://www.w3.org/2000/svg"
   xmlns:sodipodi="http://sodipodi.sourceforge.net/DTD/sodipodi-0.dtd"
   xmlns:inkscape="http://www.inkscape.org/namespaces/inkscape"
   sodipodi:docname="tikz.pdf"
   viewBox="0 0 138.636 108.38933"
   height="108.38933"
   width="138.636"
   xml:space="preserve"
   id="svg2"
   version="1.1"><metadata
     id="metadata8"><rdf:RDF><cc:Work
         rdf:about=""><dc:format>image/svg+xml</dc:format><dc:type
           rdf:resource="http://purl.org/dc/dcmitype/StillImage" /></cc:Work></rdf:RDF></metadata><defs
     id="defs6" /><sodipodi:namedview
     id="namedview4"
     inkscape:window-height="480"
     inkscape:window-width="640"
     inkscape:pageshadow="2"
     inkscape:pageopacity="0"
     guidetolerance="10"
     gridtolerance="10"
     objecttolerance="10"
     borderopacity="1"
     bordercolor="#666666"
     pagecolor="#ffffff" /><g
     transform="matrix(1.3333333,0,0,-1.3333333,0,108.38933)"
     inkscape:label="tikz"
     inkscape:groupmode="layer"
     id="g10"><g
       transform="translate(14.796,42.166)"
       id="g12"><g
         id="g14"><g
           id="g16"><g
             id="g18"><g
               id="g20"><path
                 id="path22"
                 style="fill:#000000;fill-opacity:1;fill-rule:nonzero;stroke:none"
                 d="M 2.49069,0 C 2.49069,1.37558 1.37558,2.49069 0,2.49069 -1.37558,2.49069 -2.49069,1.37558 -2.49069,0 c 0,-1.37558 1.11511,-2.49069 2.49069,-2.49069 1.37558,0 2.49069,1.11511 2.49069,2.49069 z" /></g><g
               id="g24"><g
                 id="g26" /></g></g><g
             id="g28"><g
               transform="translate(-11.475,-2.145)"
               id="g30"><g
                 id="g32"><g
                   transform="translate(-3.321,-40.021)"
                   id="g34"><text
                     id="text38"
                     style="font-variant:normal;font-weight:normal;font-size:9.9626px;font-family:CMMI10;-inkscape-font-specification:CMMI10;writing-mode:lr-tb;fill:#000000;fill-opacity:1;fill-rule:nonzero;stroke:none"
                     transform="matrix(1,0,0,-1,3.321,40.021)"><tspan
                       id="tspan36"
                       y="0"
                       x="0">a</tspan></text><g
                     transform="translate(3.321,40.021)"
                     id="g40" /></g></g><g
                 transform="translate(11.475,2.145)"
                 id="g42" /></g></g><g
             id="g44"><g
               id="g46"><path
                 id="path48"
                 style="fill:#000000;fill-opacity:1;fill-rule:nonzero;stroke:none"
                 d="m 30.8375,22.67752 c 0,1.37558 -1.11512,2.49069 -2.4907,2.49069 -1.37558,0 -2.49069,-1.11511 -2.49069,-2.49069 0,-1.37559 1.11511,-2.49069 2.49069,-2.49069 1.37558,0 2.4907,1.1151 2.4907,2.49069 z" /></g><g
               transform="translate(28.347,22.677)"
               id="g50"><g
                 id="g52" /><g
                 transform="translate(-28.347,-22.677)"
                 id="g54" /></g></g><g
             id="g56"><g
               transform="translate(26.209,28.887)"
               id="g58"><g
                 id="g60"><g
                   transform="translate(-41.005,-71.053)"
                   id="g62"><text
                     id="text66"
                     style="font-variant:normal;font-weight:normal;font-size:9.9626px;font-family:CMMI10;-inkscape-font-specification:CMMI10;writing-mode:lr-tb;fill:#000000;fill-opacity:1;fill-rule:nonzero;stroke:none"
                     transform="matrix(1,0,0,-1,41.005,71.053)"><tspan
                       id="tspan64"
                       y="0"
                       x="0">b</tspan></text><g
                     transform="translate(41.005,71.053)"
                     id="g68" /></g></g><g
                 transform="translate(-26.209,-28.887)"
                 id="g70" /></g></g><g
             id="g72"><g
               id="g74"><path
                 id="path76"
                 style="fill:#000000;fill-opacity:1;fill-rule:nonzero;stroke:none"
                 d="m 30.8375,-28.3468 c 0,1.37558 -1.11512,2.49069 -2.4907,2.49069 -1.37558,0 -2.49069,-1.11511 -2.49069,-2.49069 0,-1.37558 1.11511,-2.4907 2.49069,-2.4907 1.37558,0 2.4907,1.11512 2.4907,2.4907 z" /></g><g
               transform="translate(28.347,-28.346)"
               id="g78"><g
                 id="g80" /><g
                 transform="translate(-28.347,28.346)"
                 id="g82" /></g></g><g
             id="g84"><g
               transform="translate(26.191,-38.846)"
               id="g86"><g
                 id="g88"><g
                   transform="translate(-40.987,-3.32)"
                   id="g90"><text
                     id="text94"
                     style="font-variant:normal;font-weight:normal;font-size:9.9626px;font-family:CMMI10;-inkscape-font-specification:CMMI10;writing-mode:lr-tb;fill:#000000;fill-opacity:1;fill-rule:nonzero;stroke:none"
                     transform="matrix(1,0,0,-1,40.987,3.32)"><tspan
                       id="tspan92"
                       y="0"
                       x="0">c</tspan></text><g
                     transform="translate(40.987,3.32)"
                     id="g96" /></g></g><g
                 transform="translate(-26.191,38.846)"
                 id="g98" /></g></g><g
             id="g100"><g
               id="g102"><path
                 id="path104"
                 style="fill:#000000;fill-opacity:1;fill-rule:nonzero;stroke:none"
                 d="m 39.34161,0 c 0,1.37558 -1.11511,2.49069 -2.49069,2.49069 -1.37558,0 -2.49069,-1.11511 -2.49069,-2.49069 0,-1.37558 1.11511,-2.49069 2.49069,-2.49069 1.37558,0 2.49069,1.11511 2.49069,2.49069 z" /></g><g
               transform="translate(36.851)"
               id="g106"><g
                 id="g108" /><g
                 transform="translate(-36.851)"
                 id="g110" /></g></g><g
             id="g112"><g
               transform="translate(34.258,6.21)"
               id="g114"><g
                 id="g116"><g
                   transform="translate(-49.054,-48.376)"
                   id="g118"><text
                     id="text122"
                     style="font-variant:normal;font-weight:normal;font-size:9.9626px;font-family:CMMI10;-inkscape-font-specification:CMMI10;writing-mode:lr-tb;fill:#000000;fill-opacity:1;fill-rule:nonzero;stroke:none"
                     transform="matrix(1,0,0,-1,49.054,48.376)"><tspan
                       id="tspan120"
                       y="0"
                       x="0">d</tspan></text><g
                     transform="translate(49.054,48.376)"
                     id="g124" /></g></g><g
                 transform="translate(-34.258,-6.21)"
                 id="g126" /></g></g><g
             id="g128"><g
               id="g130"><path
                 id="path132"
                 style="fill:#000000;fill-opacity:1;fill-rule:nonzero;stroke:none"
                 d="m 67.68843,-28.3468 c 0,1.37558 -1.11511,2.49069 -2.49069,2.49069 -1.37558,0 -2.49069,-1.11511 -2.49069,-2.49069 0,-1.37558 1.11511,-2.4907 2.49069,-2.4907 1.37558,0 2.49069,1.11512 2.49069,2.4907 z" /></g><g
               transform="translate(65.197,-28.346)"
               id="g134"><g
                 id="g136" /><g
                 transform="translate(-65.197,28.346)"
                 id="g138" /></g></g><g
             id="g140"><g
               transform="translate(62.878,-38.846)"
               id="g142"><g
                 id="g144"><g
                   transform="translate(-77.674,-3.32)"
                   id="g146"><text
                     id="text150"
                     style="font-variant:normal;font-weight:normal;font-size:9.9626px;font-family:CMMI10;-inkscape-font-specification:CMMI10;writing-mode:lr-tb;fill:#000000;fill-opacity:1;fill-rule:nonzero;stroke:none"
                     transform="matrix(1,0,0,-1,77.674,3.32)"><tspan
                       id="tspan148"
                       y="0"
                       x="0">e</tspan></text><g
                     transform="translate(77.674,3.32)"
                     id="g152" /></g></g><g
                 transform="translate(-62.878,38.846)"
                 id="g154" /></g></g><g
             id="g156"><g
               id="g158"><path
                 id="path160"
                 style="fill:#000000;fill-opacity:1;fill-rule:nonzero;stroke:none"
                 d="m 76.19255,0 c 0,1.37558 -1.11511,2.49069 -2.49069,2.49069 -1.37558,0 -2.49069,-1.11511 -2.49069,-2.49069 0,-1.37558 1.11511,-2.49069 2.49069,-2.49069 1.37558,0 2.49069,1.11511 2.49069,2.49069 z" /></g><g
               transform="translate(73.701)"
               id="g162"><g
                 id="g164" /><g
                 transform="translate(-73.701)"
                 id="g166" /></g></g><g
             id="g168"><g
               transform="translate(79.911,-2.491)"
               id="g170"><g
                 id="g172"><g
                   transform="translate(-94.707,-39.675)"
                   id="g174"><text
                     id="text178"
                     style="font-variant:normal;font-weight:normal;font-size:9.9626px;font-family:CMMI10;-inkscape-font-specification:CMMI10;writing-mode:lr-tb;fill:#000000;fill-opacity:1;fill-rule:nonzero;stroke:none"
                     transform="matrix(1,0,0,-1,94.707,39.675)"><tspan
                       id="tspan176"
                       y="0"
                       x="0">f</tspan></text><g
                     transform="translate(94.707,39.675)"
                     id="g180" /></g></g><g
                 transform="translate(-79.911,2.491)"
                 id="g182" /></g></g><path
             id="path184"
             style="fill:none;stroke:#000000;stroke-width:0.3985;stroke-linecap:butt;stroke-linejoin:miter;stroke-miterlimit:10;stroke-dasharray:none;stroke-opacity:1"
             d="M 2.10036,1.6803 26.24643,20.99721" /><path
             id="path186"
             style="fill:none;stroke:#000000;stroke-width:0.3985;stroke-linecap:butt;stroke-linejoin:miter;stroke-miterlimit:10;stroke-dasharray:none;stroke-opacity:1"
             d="M 1.90207,-1.90207 26.44473,-26.44473" /><path
             id="path188"
             style="fill:none;stroke:#000000;stroke-width:0.3985;stroke-linecap:butt;stroke-linejoin:miter;stroke-miterlimit:10;stroke-dasharray:none;stroke-opacity:1"
             d="m 29.11972,-25.77043 6.9583,23.19406" /><path
             id="path190"
             style="fill:none;stroke:#000000;stroke-width:0.3985;stroke-linecap:butt;stroke-linejoin:miter;stroke-miterlimit:10;stroke-dasharray:none;stroke-opacity:1"
             d="M 2.68994,0 H 34.16098" /><path
             id="path192"
             style="fill:none;stroke:#000000;stroke-width:0.3985;stroke-linecap:butt;stroke-linejoin:miter;stroke-miterlimit:10;stroke-dasharray:none;stroke-opacity:1"
             d="M 38.75299,-1.90207 63.29567,-26.44473" /><path
             id="path194"
             style="fill:none;stroke:#000000;stroke-width:0.3985;stroke-linecap:butt;stroke-linejoin:miter;stroke-miterlimit:10;stroke-dasharray:none;stroke-opacity:1"
             d="M 39.54086,0 H 71.01192" /></g></g></g></g></svg>
